# xmcd
#
# Track frame offsets:
# 150
# 19155
# 31442
# 40305
# 52672
# 67182
# 79602
# 91865
# 105902
# 116397
# 130790
# 142220
# 151322
# 164290
# 178280
# 190895
#
# Disc length: 2735 seconds
#
# Revision: 0
# Processed by: cddbd v1.4PL0 Copyright (c) Steve Scherf et al.
# Submitted via: Audion 3.0.2 (http://www.panic.com/audion/)
#
DISCID=cf0aad10
DTITLE=Various Artist - Musique Tapestry - Country
DYEAR=1900
DGENRE=
TTITLE0=Angel of the Morning/Juice Newton
TTITLE1=By the Time I Get to Phoenix/Glen Campbell
TTITLE2=Jambalaya/Wanda Jackson
TTITLE3=My Rifle, My Pony and Me/Dean Martin
TTITLE4=Green Green Grass of Home/Merle Haggard
TTITLE5=I Can't Stop Loving You/Ferlin Husky
TTITLE6=The Wild Side of Life/Hank Thompson
TTITLE7=You are My Sunshine/Sonny James
TTITLE8=Tennessee Waltz/Faron Young
TTITLE9=Hank's Song/Ferlin Husky
TTITLE10=Oklahoma Hills/Tommy Collins
TTITLE11=When it's Time for the Whipperwill to Sing/Joe Maphis and Merle Travis
TTITLE12=Your Cheatin' Heart/Faron Young
TTITLE13=Branded Man/Merle Haggard
TTITLE14=High Noon/Tex Ritter
TTITLE15=Waltz of the Angel/Jean Shepard
EXTD=
EXTT0=
EXTT1=
EXTT2=
EXTT3=
EXTT4=
EXTT5=
EXTT6=
EXTT7=
EXTT8=
EXTT9=
EXTT10=
EXTT11=
EXTT12=
EXTT13=
EXTT14=
EXTT15=
PLAYORDER=
